<?xml version="1.0" encoding="iso-8859-1"?>
<!-- Generator: Adobe Illustrator 19.1.0, SVG Export Plug-In . SVG Version: 6.00 Build 0)  -->
<svg version="1.1" id="Capa_1" xmlns="http://www.w3.org/2000/svg" xmlns:xlink="http://www.w3.org/1999/xlink" x="0px" y="0px"
	 viewBox="0 0 63 63" style="enable-background:new 0 0 63 63;" xml:space="preserve">
<g>
	<g id="group-6svg">
		<path id="path-1_26_" d="M32.524,63c-8.687,0-16.855-3.383-22.998-9.526S0,39.164,0,30.476c0-8.687,3.382-16.855,9.526-22.998
			c3.248-3.248,7.095-5.732,11.432-7.38c0.554-0.209,1.176-0.076,1.593,0.341c0.418,0.418,0.552,1.042,0.342,1.594
			c-4.128,10.864-1.499,23.18,6.697,31.376c5.565,5.564,12.967,8.629,20.842,8.629c3.619,0,7.163-0.65,10.534-1.931
			c0.556-0.209,1.177-0.076,1.594,0.342c0.418,0.417,0.552,1.041,0.342,1.593c-1.648,4.338-4.132,8.184-7.381,11.432
			C49.379,59.617,41.211,63,32.524,63z M19.044,4.222c-2.738,1.396-5.216,3.197-7.397,5.378C6.071,15.176,3,22.59,3,30.476
			c0,7.887,3.071,15.3,8.647,20.877C17.223,56.929,24.637,60,32.524,60c7.886,0,15.3-3.071,20.876-8.647
			c2.181-2.18,3.981-4.658,5.377-7.395c-2.715,0.718-5.509,1.08-8.345,1.08c-8.677,0-16.832-3.377-22.963-9.507
			C19.249,27.311,16.111,15.331,19.044,4.222z"/>
	</g>
</g>
<g>
</g>
<g>
</g>
<g>
</g>
<g>
</g>
<g>
</g>
<g>
</g>
<g>
</g>
<g>
</g>
<g>
</g>
<g>
</g>
<g>
</g>
<g>
</g>
<g>
</g>
<g>
</g>
<g>
</g>
</svg>
